{
  "title": "Virgin.Mountain.2015.1080p.BRRip.AC3.x264.HORiZON-ArtSubs",
  "uid": 14268963,
  "size": 1532521539,
  "categoryP": "video",
  "categoryS": "movies",
  "magnet": "?xt=urn:btih:5f83c21bd3257b5ed8850df025c6204e7984f8ef&amp;dn=Virgin.Mountain.2015.1080p.BRRip.AC3.x264.HORiZON-ArtSubs&amp;tr=udp%3A%2F%2Ftracker.leechers-paradise.org%3A6969&amp;tr=udp%3A%2F%2Fzer0day.ch%3A1337&amp;tr=udp%3A%2F%2Fopen.demonii.com%3A1337&amp;tr=udp%3A%2F%2Ftracker.coppersurfer.tk%3A6969&amp;tr=udp%3A%2F%2Fexodus.desync.com%3A6969",
  "seeders": 41,
  "leechers": 6,
  "uploader": "noriegaRJ",
  "files": 1,
  "time": 1460285715,
  "description": "Title: Fusi aka Virgin Mountain\r\n\r\nRelease: Virgin.Mountain.2015.1080p.BRRip.AC3.x264.HORiZON-ArtSubs\r\n\r\n\r\nIMDB Link:                                                               \nhttp://www.imdb.com/title/tt2611652/\r\n\r\n\r\nPlot: Fusi, a 43 years old man still lives with his mother. His daily life is characterized by one of the monotonous routine. The appearance of vibrant Alma and young Hera will upset his old bachelor habits.\r\n\r\n\r\n\r\nGeneral\r\nComplete name                            : Virgin.Mountain.2015.1080p.BRRip.AC3.x264.HORiZON-ArtSubs\r\nFormat                                   : Matroska\r\nFormat version                           : Version 2\r\nFile size                                : 1.43 GiB\r\nDuration                                 : 1h 35mn\r\nOverall bit rate                         : 2 140 Kbps\r\nWriting application                      : HandBrake 0.9.5\r\nWriting library                          : libmkv 0.6.4.1\r\n\r\nVideo\r\nID                                       : 1\r\nFormat                                   : AVC\r\nFormat/Info                              : Advanced Video Codec\r\nFormat profile                           :   \r\nFormat settings, CABAC                   : Yes\r\nFormat settings, ReFrames                : 4 frames\r\nCodec ID                                 : V_MPEG4/ISO/AVC\r\nDuration                                 : 1h 35mn\r\nBit rate                                 : 2 000 Kbps\r\nWidth                                    : 1 920 pixels\r\nHeight                                   : 800 pixels\r\nDisplay aspect ratio                     : 2.40:1\r\nFrame rate mode                          : Constant\r\nFrame rate                               : 24.000 fps\r\nColor space                              : YUV\r\nChroma subsampling                       : 4:2:0\r\nBit depth                                : 8 bits\r\nScan type                                : Progressive\r\nBits/(Pixel*Frame)                       : 0.054\r\nStream size                              : 1.27 GiB (89%)\r\nWriting library                          : x264 core 112\r\nLanguage                                 : English\r\nDefault                                  : Yes\r\nForced                                   : No\r\nColor primaries                          : BT.709\r\nTransfer characteristics                 : BT.709\r\nMatrix coefficients                      : BT.709\r\n\r\nAudio\r\nID                                       : 2\r\nFormat                                   : AC-3\r\nFormat/Info                              : Audio Coding 3\r\nMode extension                           : CM (complete main)\r\nFormat settings, Endianness              : Big\r\nCodec ID                                 : A_AC3\r\nDuration                                 : 1h 35mn\r\nBit rate mode                            : Constant\r\nBit rate                                 : 192 Kbps\r\nChannel count                            : 2 channels\r\nChannel positions                        : Front: L R\r\nSampling rate                            : 48.0 KHz\r\nBit depth                                : 16 bits\r\nCompression mode                         : Lossy\r\nStream size                              : 131 MiB (9%)\r\nDefault                                  : Yes\r\nForced                                   : No\r\n\r\n\r\n\r\nThanks to those helping me seed. Leechers remember, the community depends on you. If nobody shares, the freebies go away. Remember, the only reason you can download this free movie is because others are generous enough to keep sharing it with you. If nobody shares, everybody loses, so even if its for an extra hour or two after you get it, remember, others want to see it too, and they can't without you.\r\n\r\n\r\nSEE MY OTHERS UPLOADS:                                                                                       \nhttp://thepiratebay.se/user/noriegaRJ\r\n\r\nAND SEE THIS ANOTHERS UPLOADS FROM &quot;HORiZON-ArtSubs&quot;:                                       \nhttp://thepiratebay.se/user/artsubs                                       \nhttp://thepiratebay.se/user/lletaif",
  "parsed": {
    "xt": "urn:btih:5f83c21bd3257b5ed8850df025c6204e7984f8ef",
    "dn": "Virgin.Mountain.2015.1080p.BRRip.AC3.x264.HORiZON-ArtSubs",
    "tr": [
      "udp://exodus.desync.com:6969",
      "udp://open.demonii.com:1337",
      "udp://tracker.coppersurfer.tk:6969",
      "udp://tracker.leechers-paradise.org:6969",
      "udp://zer0day.ch:1337"
    ],
    "infoHash": "5f83c21bd3257b5ed8850df025c6204e7984f8ef",
    "infoHashBuffer": {
      "type": "Buffer",
      "data": [
        95,
        131,
        194,
        27,
        211,
        37,
        123,
        94,
        216,
        133,
        13,
        240,
        37,
        198,
        32,
        78,
        121,
        132,
        248,
        239
      ]
    },
    "name": "Virgin.Mountain.2015.1080p.BRRip.AC3.x264.HORiZON-ArtSubs",
    "announce": [
      "udp://exodus.desync.com:6969",
      "udp://open.demonii.com:1337",
      "udp://tracker.coppersurfer.tk:6969",
      "udp://tracker.leechers-paradise.org:6969",
      "udp://zer0day.ch:1337"
    ],
    "urlList": []
  },
  "previous": 101,
  "peers": 98,
  "last_updated": "2016-12-27T01:44:37.790Z"
}